PathFileType	4	(X/Y/Z)	C:/Users/opensim2020/Desktop/walking_exp_matlab/subject03_walking12_straight_02.trc																																																																																																																																														
DataRate	CameraRate	NumFrames	NumMarkers	Units	OrigDataRate	OrigDataStartFrame	OrigNumFrames																																																																																																																																										
100	100	4	48	mm	100	1171	187																																																																																																																																										
Frame#	Time	LFHD			RFHD			LBHD			RBHD			C7			T10			CLAV			STRN			RBAK			LSHO			LUPA			LELB			LFRM			LWRA			LWRB			LFIN			RSHO			RUPA			RELB			RFRM			RWRA			RWRB			RFIN			LASI			RASI			LPSI			RPSI			LTHI			LKNE			LTIB			LANK			LHEE			LTOE			RTHI			RKNE			RTIB			RANK			RHEE			RTOE			*39			*40			*41			*42			*43			*44			*45			*46			*47		
		X1	Y1	Z1	X2	Y2	Z2	X3	Y3	Z3	X4	Y4	Z4	X5	Y5	Z5	X6	Y6	Z6	X7	Y7	Z7	X8	Y8	Z8	X9	Y9	Z9	X10	Y10	Z10	X11	Y11	Z11	X12	Y12	Z12	X13	Y13	Z13	X14	Y14	Z14	X15	Y15	Z15	X16	Y16	Z16	X17	Y17	Z17	X18	Y18	Z18	X19	Y19	Z19	X20	Y20	Z20	X21	Y21	Z21	X22	Y22	Z22	X23	Y23	Z23	X24	Y24	Z24	X25	Y25	Z25	X26	Y26	Z26	X27	Y27	Z27	X28	Y28	Z28	X29	Y29	Z29	X30	Y30	Z30	X31	Y31	Z31	X32	Y32	Z32	X33	Y33	Z33	X34	Y34	Z34	X35	Y35	Z35	X36	Y36	Z36	X37	Y37	Z37	X38	Y38	Z38	X39	Y39	Z39	X40	Y40	Z40	X41	Y41	Z41	X42	Y42	Z42	X43	Y43	Z43	X44	Y44	Z44	X45	Y45	Z45	X46	Y46	Z46	X47	Y47	Z47	X48	Y48	Z48
																																																																																																																																																	
71	0.7	-434.08084	1604.31726	-1484.46521	-454.71567	1609.87744	-1353.21289	-560.05811	1556.35669	-1497.35742	-575.25458	1561.96021	-1367.93103	-595.56329	1397.19641	-1436.10083	-624.76227	1083.73987	-1439.90039	-472.34766	1322.00244	-1427.15955	-427.78186	1157.27271	-1428.25964	-653.31531	1221.09985	-1342.18689	-512.44507	1356.97473	-1587.14514	-547.98602	1159.90186	-1653.9873	-560.60297	1036.79517	-1664.49829	-567.61938	906.05872	-1667.23633	-587.68469	784.86566	-1639.74731	-602.8999	799.07935	-1692.98755	-643.64551	720.32593	-1678.73047	-532.35858	1349.03748	-1271.62183	-494.40283	1135.13184	-1194.4668	-446.64636	1034.15173	-1180.82959	-370.48566	921.74701	-1184.64417	-297.58511	858.39752	-1224.1554	-324.33038	833.12408	-1185.11194	-264.63599	791.09302	-1193.24695	-438.55029	926.98193	-1539.76208	-476.05499	917.32446	-1303.67896	-607.28845	940.44922	-1518.70862	-627.66998	948.80573	-1370.09058	-411.58908	634.0387	-1596.08008	-349.33276	475.51245	-1550.08826	-349.6001	276.64508	-1553.58716	-317.98694	69.84824	-1520.93127	-356.55911	33.53428	-1484.41943	-168.94186	42.71942	-1486.84509	-586.60748	634.42908	-1272.703	-616.50769	456.05615	-1304.90869	-747.7804	308.85446	-1310.05737	-877.349	137.13129	-1364.07373	-926.94629	132.08769	-1417.5481	-772.41589	35.09572	-1378.91382	-525.14453	1664.28491	-1447.50415	NaN	NaN	NaN	NaN	NaN	NaN	NaN	NaN	NaN	NaN	NaN	NaN	NaN	NaN	NaN	NaN	NaN	NaN	NaN	NaN	NaN	NaN	NaN	NaN
72	0.71	-420.23706	1605.5387	-1485.26648	-441.08871	1611.06799	-1354.09387	-546.1203	1557.70398	-1498.43518	-561.54028	1563.19336	-1368.78259	-581.1272	1398.08569	-1437.59399	-609.68048	1084.29834	-1440.27783	-458.01376	1323.37488	-1428.00415	-412.76358	1159.01965	-1428.85339	-638.74402	1221.32727	-1343.82043	-497.23953	1357.99951	-1588.20374	-532.83441	1161.05151	-1655.32349	-545.89038	1037.87061	-1665.86804	-553.67371	907.23553	-1668.71545	-575.17126	786.10199	-1641.24634	-589.33795	800.37146	-1694.92639	-633.42133	722.99969	-1680.16113	-518.94678	1350.21777	-1272.55542	-482.11761	1135.6322	-1195.99707	-434.83322	1034.37952	-1182.33484	-359.38303	921.44537	-1185.93054	-286.38174	857.89746	-1224.92847	-313.80627	832.56384	-1186.31006	-254.28624	790.18445	-1193.95911	-422.45926	928.91699	-1540.41113	-459.82214	917.15887	-1304.8623	-591.30969	942.4895	-1519.34314	-611.36438	949.3186	-1370.29749	-396.91147	636.06458	-1596.46472	-334.51746	477.21054	-1550.74719	-338.35712	277.82794	-1555.23486	-314.27277	69.62324	-1520.77271	-354.93878	34.70857	-1484.94116	-165.27922	40.74817	-1489.4801	-569.04907	633.71954	-1272.95752	-597.44696	455.16684	-1303.70984	-733.54926	311.92596	-1309.87317	-868.68634	145.0621	-1363.60547	-917.03723	142.90227	-1417.85803	-771.02795	35.071	-1379.10925	-509.21631	1660.6936	-1439.17041	NaN	NaN	NaN	NaN	NaN	NaN	NaN	NaN	NaN	NaN	NaN	NaN	NaN	NaN	NaN	NaN	NaN	NaN	NaN	NaN	NaN	NaN	NaN	NaN
73	0.72	-406.3974	1606.88098	-1486.10706	-427.41199	1612.34961	-1354.95947	-532.27325	1559.07581	-1499.56787	-547.86914	1564.55737	-1369.85742	-566.64844	1399.23425	-1438.90234	-594.54803	1085.12805	-1441.0033	-443.64175	1324.84375	-1428.77405	-397.83112	1160.57166	-1429.38867	-624.2489	1222.02063	-1345.34949	-482.14267	1359.3501	-1589.11914	-517.15375	1162.36157	-1656.43469	-530.49957	1039.28345	-1667.03088	-538.8656	908.7298	-1670.19312	-561.01343	787.70422	-1642.80261	-574.80072	801.98853	-1696.8822	-621.34943	725.74921	-1681.81775	-505.40094	1351.68799	-1273.57849	-469.91302	1136.3717	-1197.50146	-423.29153	1034.76868	-1183.9259	-348.70624	921.15393	-1187.22229	-275.96207	857.15472	-1225.84814	-303.96716	831.8504	-1187.48779	-244.72037	788.89594	-1194.79614	-406.69485	931.1134	-1540.9801	-443.63571	917.4845	-1306.23901	-575.52264	944.65881	-1519.84473	-595.33862	949.92151	-1370.58167	-383.03738	637.83374	-1597.16528	-319.67484	478.6655	-1550.9281	-328.55554	278.34976	-1556.73877	-313.20419	69.92414	-1520.31372	-354.25085	35.20764	-1485.07251	-163.57574	39.65799	-1489.85474	-550.63257	632.92773	-1273.13672	-576.70093	454.05356	-1301.99805	-717.76312	315.35992	-1308.79065	-857.6095	153.45505	-1363.53333	-904.43884	154.45819	-1418.65857	-769.34436	35.26264	-1379.44067	-497.48849	1666.93494	-1449.48035	NaN	NaN	NaN	NaN	NaN	NaN	NaN	NaN	NaN	NaN	NaN	NaN	NaN	NaN	NaN	NaN	NaN	NaN	NaN	NaN	NaN	NaN	NaN	NaN
74	0.73	-392.55856	1608.3335	-1486.95142	-413.80389	1613.77356	-1355.75671	-518.44373	1560.50427	-1500.56177	-534.22473	1565.91907	-1370.90063	-552.39374	1400.6012	-1440.14734	-579.58813	1086.19373	-1441.84973	-429.43985	1326.46509	-1429.50134	-382.94525	1162.59656	-1430.02625	-609.71289	1222.9834	-1346.48743	-467.14987	1361.05432	-1589.9989	-500.97784	1163.88806	-1657.4823	-514.7489	1040.93066	-1668.10254	-523.29657	910.43219	-1671.65295	-546.1217	789.28778	-1644.84973	-559.29077	803.78491	-1698.82153	-607.49774	728.26263	-1683.77393	-491.81668	1353.29285	-1274.5896	-457.62421	1137.38049	-1198.98975	-411.95453	1035.36035	-1185.505	-338.48203	920.92542	-1188.52161	-265.89151	856.18097	-1226.52124	-294.53207	831.08313	-1188.69495	-235.93144	787.43469	-1195.5658	-391.38727	933.43982	-1541.69299	-427.60446	918.38159	-1307.83044	-560.03363	946.88281	-1520.30725	-579.58331	950.68701	-1370.81567	-369.229	639.40869	-1597.99756	-306.17178	479.66702	-1550.88025	-320.03342	278.87796	-1558.18286	-311.61081	70.00952	-1520.08618	-353.85422	35.42781	-1485.45264	-162.53456	38.60621	-1488.09705	-531.34973	632.0816	-1273.43433	-554.24542	452.75919	-1300.03589	-699.70593	318.68649	-1307.77173	-844.08594	161.72116	-1363.44531	-888.95691	166.14139	-1419.52271	-767.28394	35.37027	-1380.10986	-483.57208	1668.33203	-1450.41907	NaN	NaN	NaN	NaN	NaN	NaN	NaN	NaN	NaN	NaN	NaN	NaN	NaN	NaN	NaN	NaN	NaN	NaN	NaN	NaN	NaN	NaN	NaN	NaN
